inDegrees=no
num_controls=7
num_derivatives=13
num_iterations=138
num_multipliers=7
num_parameters=0
num_slacks=7
num_states=26
objective=5.319279
objective_accelerations=0.545395
objective_balance=0.048567
objective_effort=0.477709
objective_height=4.206379
objective_ligament=0.041229
solver_duration=1536.422732
status=Solve_Succeeded
success=true
DataType=double
version=3
OpenSimVersion=4.4-2022-07-23-0e9fedc
endheader
time	/jointset/ground_pelvis/pelvis_tilt/value	/jointset/ground_pelvis/pelvis_tx/value	/jointset/ground_pelvis/pelvis_ty/value	/jointset/hip_l/hip_flexion_l/value	/jointset/hip_l/hip_adduction_l/value	/jointset/hip_l/hip_rotation_l/value	/jointset/back/lumbar_extension/value	/jointset/patellofemoral_l/patellar_flexion_l/value	/jointset/knee_l/knee_flexion_l/value	/jointset/knee_l/knee_adduction_l/value	/jointset/knee_l/knee_rotation_l/value	/jointset/ankle_l/ankle_angle_l/value	/jointset/subtalar_l/subtalar_angle_l/value	/jointset/ground_pelvis/pelvis_tilt/speed	/jointset/ground_pelvis/pelvis_tx/speed	/jointset/ground_pelvis/pelvis_ty/speed	/jointset/hip_l/hip_flexion_l/speed	/jointset/hip_l/hip_adduction_l/speed	/jointset/hip_l/hip_rotation_l/speed	/jointset/back/lumbar_extension/speed	/jointset/patellofemoral_l/patellar_flexion_l/speed	/jointset/knee_l/knee_flexion_l/speed	/jointset/knee_l/knee_adduction_l/speed	/jointset/knee_l/knee_rotation_l/speed	/jointset/ankle_l/ankle_angle_l/speed	/jointset/subtalar_l/subtalar_angle_l/speed	/forceset/tau_hip_flexion_l	/forceset/tau_hip_adduction_l	/forceset/tau_hip_rotation_l	/forceset/tau_knee_flexion_l	/forceset/tau_ankle_angle_l	/forceset/tau_subtalar_angle_l	/forceset/tau_lumbar_extension	lambda_cid13_p0	lambda_cid13_p1	lambda_cid13_p2	lambda_cid13_p3	lambda_cid13_p4	lambda_cid13_p5	lambda_cid14_p0	/jointset/ground_pelvis/pelvis_tilt/accel	/jointset/ground_pelvis/pelvis_tx/accel	/jointset/ground_pelvis/pelvis_ty/accel	/jointset/hip_l/hip_flexion_l/accel	/jointset/hip_l/hip_adduction_l/accel	/jointset/hip_l/hip_rotation_l/accel	/jointset/back/lumbar_extension/accel	/jointset/patellofemoral_l/patellar_flexion_l/accel	/jointset/knee_l/knee_flexion_l/accel	/jointset/knee_l/knee_adduction_l/accel	/jointset/knee_l/knee_rotation_l/accel	/jointset/ankle_l/ankle_angle_l/accel	/jointset/subtalar_l/subtalar_angle_l/accel	gamma_cid13_p0	gamma_cid13_p1	gamma_cid13_p2	gamma_cid13_p3	gamma_cid13_p4	gamma_cid13_p5	gamma_cid14_p0
0.5	-0.4800482491041908	-0.102108366038817	0.7671490185855252	1.267294566249815	-0.3095697698466768	-0.0880586802208788	-0.3283715573900622	0.57993678671281	0.5799367867128286	-0.1744453082894814	0.1730219463147715	-0.05217256983210865	-0.06541103751235418	-0.8558455625118903	-0.3464895603862828	-0.4720060536812543	2.385093889473995	-0.06813437098669718	0.4847286964561489	-0.6228195324914306	1.47927303535121	1.479273035351135	-0.0009556437688216318	0.01270427771626772	0.006094234120222384	-0.08024319721208345	-0.2585862294705061	0.007115543445651448	-0.01884834050114444	-0.1835347646992721	0.1879251422855813	0.04559660175762695	0.2271670692845364	21.05908708376815	-25.89176291221158	6.468943950072671	-7.1127439937343	-608.5219970009941	-65.04528769456633	-34.05928126204982	0.5745773041465113	0.7293305664876105	-0.248405938809095	-1.530896083148591	0.4254194766009203	-0.1802284766298153	1.737246812143878	-0.9547881066471938	-0.9547881066471305	0.02352046423270474	-0.08217670684131791	0.09134104256624401	0.4311549443523187	3.274332948139099e-08	-7.148858080074067e-07	8.888437646883629e-08	-1.441519409679201e-07	-1.499959721289858e-07	1.112848780556774e-07	-1.062167167172544e-07
0.51	-0.4885761325898928	-0.1055363666214706	0.7624175268708625	1.291064902998652	-0.3102306448592495	-0.08322199710477149	-0.3345129328474082	0.5946799260078255	0.5946799260078403	-0.1744547530130435	0.1731462772740638	-0.05210731141676683	-0.06619270372261754	-0.8496168212058171	-0.3390765977706884	-0.474196216327222	2.368660814264301	-0.06404194387678461	0.4825456335381048	-0.6053881163733724	1.469160237364185	1.469160237364154	-0.0009295258175097355	0.01216227857234926	0.006947171480959262	-0.07609071555054067	-0.2672933821312419	0.0077889615857864	-0.01890245858343396	-0.184465837041949	0.1896726001174481	0.04642279424268732	0.2337911239995814	21.3709724440424	-26.18817662801405	6.382546281881281	-7.378432532463084	-613.0012051581296	-64.77682475583292	-33.35103693447007	0.6641630013606538	0.7523445379440128	-0.1899396010466286	-1.746418795247948	0.4010556157698632	-0.246805267990989	1.756205402346106	-1.068692495958416	-1.06869249595173	-0.007405771346227828	-0.04022648692834706	0.08072961538588694	0.4072920029850399	2.758335147460526e-08	-6.756505581720953e-07	9.304494720176804e-08	-1.386005930486782e-07	-1.408646732320781e-07	1.193296666028383e-07	-1.041741870047672e-07
0.52	-0.4970383005710352	-0.1088892244921985	0.7576670098950288	1.314661527884316	-0.3108506153432061	-0.07840903663156665	-0.3404779708654325	0.6093161039527265	0.6093161039527355	-0.1744638492034771	0.1732651852481628	-0.05203383172130439	-0.0669328456710796	-0.8427024615988142	-0.331461018001129	-0.4758111059154516	2.350351516839886	-0.05995346526353112	0.4799841678760879	-0.587552044626938	1.457880765328027	1.457880765328039	-0.0008859371432636639	0.01161968067797982	0.00773849014403275	-0.07193834485180607	-0.2760005347919723	0.008462379725915814	-0.01895657666572849	-0.1853969093846334	0.1914200579493081	0.04724898672774112	0.2404151787146362	21.67350015446613	-26.4844302752563	6.2978116421	-7.611474381787695	-617.6149646466907	-64.549624921733	-32.62227706987469	0.7117009643325275	0.769853997280577	-0.1333513272614781	-1.906140526092704	0.424629777269099	-0.2559090254243506	1.818177937819201	-1.188122916473692	-1.188122916473874	0.02701460881955456	-0.08229645693151734	0.07901730303352231	0.4311327517906797	2.266616828498239e-08	-6.344428302935113e-07	9.687897904552876e-08	-1.324684222343535e-07	-1.313766249794885e-07	1.260931632032543e-07	-1.015763172704352e-07
0.53	-0.5054280234110768	-0.1121649987066993	0.752903225193153	1.338065921766268	-0.3114297338821414	-0.07362345392746376	-0.3462627022396166	0.6238337423533711	0.6238337423533781	-0.1744723921705151	0.1733785603454862	-0.05195274894798888	-0.06763147830861388	-0.8351338170926591	-0.323667428059342	-0.476848404196866	2.330227077921998	-0.05587656230218355	0.4770692406668745	-0.5693404526343352	1.445459069082056	1.445459069082063	-0.0008211191889082267	0.01105804781766198	0.008466704568131192	-0.06779387403919182	-0.2845530024384851	0.008993574020208481	-0.01903529828359454	-0.1863081285051008	0.1931845397940636	0.04795433392904086	0.2468621331294335	21.98444177470578	-26.73343694452642	6.209842830194213	-7.831673160623928	-622.1231760858759	-64.248404078072	-31.87592263739265	0.7956819770339937	0.7880451690375333	-0.07432981776127544	-2.110632270099934	0.3983564311043358	-0.3188627567875816	1.830716466350789	-1.297349794183855	-1.2973497941845	-0.00366882656376843	-0.04275611126726715	0.06802023651086103	0.4053345680608378	1.805861793269841e-08	-5.908936901646107e-07	1.004298604106584e-07	-1.259670172430014e-07	-1.211767540036677e-07	1.312046371965814e-07	-9.838318454768185e-08
